<svg viewBox="0 0 136 136" fill="none" xmlns="http://www.w3.org/2000/svg"><rect width="136" height="136" rx="68" fill="#000"></rect><path d="M82.65 46h-29.3A7.35 7.35 0 0 0 46 53.35v29.3A7.35 7.35 0 0 0 53.35 90h29.3A7.35 7.35 0 0 0 90 82.65v-29.3A7.35 7.35 0 0 0 82.65 46ZM82 79.68A2.32 2.32 0 0 1 79.68 82H56.32A2.32 2.32 0 0 1 54 79.68V56.32A2.32 2.32 0 0 1 56.32 54h23.36A2.32 2.32 0 0 1 82 56.32v23.36Z" fill="#fff"></path><path d="M63.33 74c-.73 0-1.33-.6-1.33-1.34v-9.32c0-.74.6-1.34 1.33-1.34h9.34c.74 0 1.33.6 1.33 1.34v9.32c0 .74-.6 1.34-1.33 1.34h-9.34Z" fill="#fff"></path></svg>