<svg viewBox="0 0 136 136" fill="none" xmlns="http://www.w3.org/2000/svg"><rect width="136" height="136" rx="68" fill="#EFF0EC"></rect><mask id="a" maskUnits="userSpaceOnUse" x="47" y="40" width="42" height="56" style="mask-type: alpha;"><path d="M73.08 40.05h-21.6a3.82 3.82 0 0 0-3.81 3.8v48.3c0 2.09 1.72 3.8 3.81 3.8h33.04c2.1 0 3.81-1.71 3.81-3.8V55.28L73.08 40.05Z" fill="#fff"></path></mask><g mask="url(#a)"><path d="M73.08 40.05h-21.6a3.82 3.82 0 0 0-3.81 3.8v48.3c0 2.09 1.72 3.8 3.81 3.8h33.04c2.1 0 3.81-1.71 3.81-3.8V55.28l-8.9-6.35-6.35-8.9Z" fill="#0F9D58"></path></g><mask id="b" maskUnits="userSpaceOnUse" x="47" y="40" width="42" height="56" style="mask-type: alpha;"><path d="M73.08 40.05h-21.6a3.82 3.82 0 0 0-3.81 3.8v48.3c0 2.09 1.72 3.8 3.81 3.8h33.04c2.1 0 3.81-1.71 3.81-3.8V55.28L73.08 40.05Z" fill="#fff"></path></mask><g mask="url(#b)"><path d="M57.83 67.36V85.8h20.33V67.36H57.83Zm8.9 15.89h-6.35v-3.18h6.35v3.18Zm0-5.08h-6.35v-3.18h6.35v3.18Zm0-5.09h-6.35v-3.17h6.35v3.17Zm8.9 10.17h-6.36v-3.18h6.35v3.18Zm0-5.08h-6.36v-3.18h6.35v3.18Zm0-5.09h-6.36v-3.17h6.35v3.17Z" fill="#F1F1F1"></path></g><mask id="c" maskUnits="userSpaceOnUse" x="47" y="40" width="42" height="56" style="mask-type: alpha;"><path d="M73.08 40.05h-21.6a3.82 3.82 0 0 0-3.81 3.8v48.3c0 2.09 1.72 3.8 3.81 3.8h33.04c2.1 0 3.81-1.71 3.81-3.8V55.28L73.08 40.05Z" fill="#fff"></path></mask><g mask="url(#c)"><path d="M74.2 54.18 88.33 68.3V55.29L74.2 54.18Z" fill="url(#d)"></path></g><mask id="e" maskUnits="userSpaceOnUse" x="47" y="40" width="42" height="56" style="mask-type: alpha;"><path d="M73.08 40.05h-21.6a3.82 3.82 0 0 0-3.81 3.8v48.3c0 2.09 1.72 3.8 3.81 3.8h33.04c2.1 0 3.81-1.71 3.81-3.8V55.28L73.08 40.05Z" fill="#fff"></path></mask><g mask="url(#e)"><path d="M73.08 40.05v11.43a3.8 3.8 0 0 0 3.81 3.81h11.44L73.08 40.05Z" fill="#87CEAC"></path></g><mask id="f" maskUnits="userSpaceOnUse" x="47" y="40" width="42" height="56" style="mask-type: alpha;"><path d="M73.08 40.05h-21.6a3.82 3.82 0 0 0-3.81 3.8v48.3c0 2.09 1.72 3.8 3.81 3.8h33.04c2.1 0 3.81-1.71 3.81-3.8V55.28L73.08 40.05Z" fill="#fff"></path></mask><g mask="url(#f)"><path d="M51.48 40.05a3.82 3.82 0 0 0-3.81 3.8v.33c0-2.1 1.72-3.82 3.81-3.82h21.6v-.31h-21.6Z" fill="#fff" fill-opacity="0.2"></path></g><mask id="g" maskUnits="userSpaceOnUse" x="47" y="40" width="42" height="56" style="mask-type: alpha;"><path d="M73.08 40.05h-21.6a3.82 3.82 0 0 0-3.81 3.8v48.3c0 2.09 1.72 3.8 3.81 3.8h33.04c2.1 0 3.81-1.71 3.81-3.8V55.28L73.08 40.05Z" fill="#fff"></path></mask><g mask="url(#g)"><path d="M84.52 95.64H51.48a3.82 3.82 0 0 1-3.81-3.82v.32c0 2.1 1.72 3.81 3.81 3.81h33.04c2.1 0 3.81-1.71 3.81-3.8v-.33c0 2.1-1.71 3.82-3.81 3.82Z" fill="#263238" fill-opacity="0.2"></path></g><mask id="h" maskUnits="userSpaceOnUse" x="47" y="40" width="42" height="56" style="mask-type: alpha;"><path d="M73.08 40.05h-21.6a3.82 3.82 0 0 0-3.81 3.8v48.3c0 2.09 1.72 3.8 3.81 3.8h33.04c2.1 0 3.81-1.71 3.81-3.8V55.28L73.08 40.05Z" fill="#fff"></path></mask><g mask="url(#h)"><path d="M76.9 55.3a3.82 3.82 0 0 1-3.82-3.82v.32a3.8 3.8 0 0 0 3.81 3.81h11.44v-.32H76.89Z" fill="#263238" fill-opacity="0.1"></path></g><path d="M73.08 40.05h-21.6a3.82 3.82 0 0 0-3.81 3.8v48.3c0 2.09 1.71 3.8 3.81 3.8h33.04c2.1 0 3.81-1.71 3.81-3.8V55.28L73.08 40.05Z" fill="url(#i)"></path><defs><radialGradient id="i" cx="0" cy="0" r="1" gradientUnits="userSpaceOnUse" gradientTransform="translate(48.96 41.16) scale(65.5655)"><stop stop-color="#fff" stop-opacity="0.1"></stop><stop offset="1" stop-color="#fff" stop-opacity="0"></stop></radialGradient><linearGradient id="d" x1="81.26" y1="55.39" x2="81.26" y2="68.31" gradientUnits="userSpaceOnUse"><stop stop-color="#263238" stop-opacity="0.2"></stop><stop offset="1" stop-color="#263238" stop-opacity="0.02"></stop></linearGradient></defs></svg>