<svg viewBox="0 0 136 136" fill="none" xmlns="http://www.w3.org/2000/svg"><rect width="136" height="136" rx="68" fill="#FF4A00"></rect><path d="M73.2 68c0 1.5-.27 3-.8 4.4a12.44 12.44 0 0 1-8.8 0 12.4 12.4 0 0 1-.8-4.39v-.02c0-1.54.28-3.03.8-4.4a12.45 12.45 0 0 1 8.8 0c.53 1.41.8 2.9.8 4.4v.02Zm15.32-3.47H76.37l8.6-8.59a20.93 20.93 0 0 0-4.9-4.9l-8.6 8.59V47.48c-1.14-.2-2.3-.29-3.46-.29H68c-1.16 0-2.32.1-3.46.3v12.14l-8.59-8.6a20.92 20.92 0 0 0-4.9 4.9l8.59 8.6H47.48s-.29 2.28-.29 3.46v.02c0 1.16.1 2.31.3 3.46h12.14l-8.6 8.59a21.15 21.15 0 0 0 4.91 4.9l8.6-8.59v12.15c1.13.2 2.29.29 3.45.29h.03c1.15 0 2.3-.1 3.45-.3V76.38l8.59 8.6a20.93 20.93 0 0 0 4.9-4.9l-8.59-8.6h12.15a20 20 0 0 0 .29-3.45V68c0-1.16-.1-2.32-.29-3.46Z" fill="#fff"></path></svg>