<svg viewBox="0 0 136 136" fill="none" xmlns="http://www.w3.org/2000/svg"><rect width="136" height="136" rx="23" fill="#FFE01B"></rect><path fill-rule="evenodd" clip-rule="evenodd" d="M79.54 66.65h1.1c.18-.37.18-1.09 0-1.9-.19-1.17-.55-1.8-1.2-1.8-.73.18-.73 1-.45 2.16.09.63.37 1.17.64 1.54h-.1Zm-5.78.9c.46.27.74.36.92.27l-.1-.45a2.73 2.73 0 0 0-1.27-.9 3.54 3.54 0 0 0-3.4.36c-.27.18-.64.54-.54.72l.18.09c.27 0 1.19-.36 2.29-.45.73 0 1.37.18 1.83.36h.1Zm-1 .63c-.65 0-.92.27-1.2.45l-.36.45v.18h.18l.46-.1c.92-.35 1.47-.26 2.02-.26h.55v-.18c-.1-.27-.83-.72-1.65-.54Zm4.85 1.98c.46.18.92.18 1.1-.18.1-.27-.09-.72-.55-.9-.36-.27-.91-.18-1 .18-.19.27 0 .72.45.9Zm2.75-2.43c-.27 0-.55.45-.64.9 0 .45.28.9.64.9.37 0 .64-.45.64-.9s-.27-.9-.55-.9h-.09Zm-23.92 8.56c-.18 0-.27.09-.36 0a.75.75 0 0 1-.65-.18v-1.09l.19-.18c.27-.63.73-1.62.18-2.7a2.36 2.36 0 0 0-1.83-1.26 2.35 2.35 0 0 0-2.02.72c-.82.9-.91 1.98-.73 2.43l.18.18c.1 0 .37-.09.46-.45 0-.27.18-.54.37-.9.18-.27.45-.45.91-.54.37 0 .74 0 1.01.18.55.36.73 1.08.55 1.71-.1.27-.37.9-.27 1.45 0 .99.73 1.44 1.28 1.44s.92-.27 1.1-.45v-.27c-.1-.1-.28 0-.37 0v-.1Zm33 1.62a10.53 10.53 0 0 1-2.94 5.4 10.63 10.63 0 0 1-3.39 2.62l-2.2.9c-5.86 1.89-11.91-.18-13.84-4.69a9.13 9.13 0 0 1 1.65-9.64l.28-.54-.18-.45c-.83-1.17-3.49-2.97-2.94-6.67.37-2.52 2.75-4.41 4.86-4.32h.55l2.47.27c1.29 0 2.48-.1 3.85-1.26.46-.36.83-.72 1.47-.81h.55c.28 0 .64 0 .92.27 1.1.72 1.28 2.43 1.28 3.7l.18 2.96c0 1.18.37 1.36.92 1.54l1.2.36c1.07.2 2.08.66 2.92 1.35.28.36.46.63.46.99.19 1.26-.91 2.7-3.94 4.14a20.47 20.47 0 0 1-10.08 1.63l-.92-.18c-2.29-.28-3.48 2.6-2.2 4.5.92 1.26 3.21 2.07 5.5 2.07 5.41 0 9.44-2.25 11-4.23l.1-.18c0-.18.08-.1 0 0-1.3.72-6.88 4.14-12.84 3.06 0 0-.64 0-1.28-.36-.55-.18-1.65-.63-1.83-1.8 4.85 1.44 7.88.09 7.88.09v-.1l-.1-.17s-3.94.63-7.6-.72c.36-1.35 1.46-.9 3.02-.72 2.94.18 5.6-.27 7.52-.81a18.7 18.7 0 0 0 5.59-2.7c.55 1.16.82 2.6.82 2.6s.46-.08.83.1c.27.27.55.72.37 1.8h.09ZM62.12 57.37a20.35 20.35 0 0 1 6.15-4.96h.09l-.55 1.44c0 .1 0 .18.09.1a10.32 10.32 0 0 1 5.4-1.81s.1 0 0 .09c-.3.26-.59.57-.82.9h.1c1.37 0 3.3.54 4.58 1.26 0 0 0 .18-.19.18a18.55 18.55 0 0 0-14.66 2.89c-.19 0-.28 0-.19-.1Zm-9.53 9.9a6.42 6.42 0 0 0-4.03 2.62 10.92 10.92 0 0 1-1.74-1.62c-1.38-2.7 1.56-7.93 3.67-10.9 5.22-7.21 13.28-12.8 17.13-11.8.55.17 2.57 2.42 2.57 2.42s-3.67 2.08-7.15 4.96a32.45 32.45 0 0 0-10.36 14.42l-.09-.1Zm2.75 12.35h-.73c-2.48 0-5.22-2.25-5.5-4.87-.27-2.88 1.2-5.13 3.94-5.67.36-.08.73-.1 1.1-.1 1.47 0 3.67 1.18 4.22 4.51.46 2.7-.28 5.68-3.03 6.13Zm33.91-5.14-.27-1.17-.46-1.08a3.38 3.38 0 0 0-.37-4.68 8.3 8.3 0 0 0-3.57-1.8l-.92-.19V62.5c0-.63-.09-1.62-.46-2.7a7.17 7.17 0 0 0-1.83-3.25c2.3-2.34 3.67-4.95 3.67-7.2 0-4.15-5.32-5.41-11.83-2.7l-1.37.44-2.38-2.43c-7.43-6.3-30.61 19.1-23.2 25.23l1.57 1.44a7.8 7.8 0 0 0-.37 3.6 7.17 7.17 0 0 0 2.48 4.6 7.68 7.68 0 0 0 4.85 1.98c1.5 3.25 3.93 6 7 7.91a19.03 19.03 0 0 0 10.23 2.9c8.25.27 15.3-3.6 18.15-10.54.18-.45 1-2.7 1-4.5 0-1.99-1.1-2.8-1.82-2.8h-.1Z" fill="#1E2330"></path></svg>