<svg viewBox="0 0 138 138" fill="none" xmlns="http://www.w3.org/2000/svg"><rect x="0.98" y="1.1" width="136" height="136" rx="23" transform="rotate(-.09 .98 1.1)" fill="#00457C"></rect><path opacity="0.68" d="M83.22 58.74c.5-3.24-.01-5.44-1.77-7.43-1.93-2.2-5.41-3.13-9.87-3.12l-12.93.02c-.91 0-1.69.66-1.83 1.56L51.5 83.93c-.1.68.41 1.29 1.1 1.29l7.98-.02-.55 3.5a.97.97 0 0 0 .96 1.12h6.74c.8-.01 1.47-.6 1.6-1.38l.06-.34 1.25-8.04.09-.45c.12-.78.8-1.37 1.6-1.37h1c6.52 0 11.62-2.67 13.1-10.33.62-3.2.3-5.87-1.36-7.75a6.42 6.42 0 0 0-1.84-1.42Z" fill="#fff"></path><path opacity="0.7" d="M83.22 58.74c.5-3.24-.01-5.44-1.77-7.43-1.93-2.2-5.41-3.13-9.87-3.12l-12.93.02c-.91 0-1.69.66-1.83 1.56L51.5 83.93c-.1.68.41 1.29 1.1 1.29l7.98-.02 1.99-12.72-.07.4c.15-.9.91-1.56 1.82-1.57h3.8c7.45-.01 13.29-3.05 14.98-11.81l.13-.76Z" fill="#fff"></path><path d="M64.7 58.81a1.62 1.62 0 0 1 1.59-1.37l10.14-.01a21.15 21.15 0 0 1 4.2.4 12.52 12.52 0 0 1 1.19.32c.5.17.97.37 1.4.6.5-3.25-.01-5.45-1.77-7.44-1.93-2.2-5.41-3.13-9.87-3.12l-12.93.02c-.91 0-1.69.66-1.83 1.56L51.5 83.93c-.1.68.41 1.29 1.1 1.29l7.98-.02 1.99-12.72 2.13-13.67Z" fill="#fff"></path></svg>