<svg viewBox="0 0 136 136" fill="none" xmlns="http://www.w3.org/2000/svg"><rect width="136" height="136" rx="23" fill="#95BF47"></rect><path fill-rule="evenodd" clip-rule="evenodd" d="M86.18 51.16c-.03-.29-.29-.42-.48-.45l-.23-.01c-.87-.03-3.86-.06-3.86-.06l-3.6-3.5a.65.65 0 0 0-.29-.17 1.8 1.8 0 0 0-.9.01l-1.66.52c-.16-.55-.42-1.23-.77-1.91-1.17-2.24-2.86-3.4-4.93-3.4-.13 0-.3 0-.42.03a4.3 4.3 0 0 0-3.6-1.62c-2.66.06-5.28 1.97-7.45 5.41A21.12 21.12 0 0 0 55 53.76l-2.38.73c-1.72.53-2.81.86-2.84.89-1.52.48-1.58.52-1.78 1.97-.16 1.07-4.18 32.22-4.18 32.22l33.74 5.83 14.62-3.63-6-40.6Zm-12.7-3.14-1.31.4-1.32.41a15.6 15.6 0 0 0-.8-4.83c2.03.39 3 2.66 3.43 4.02Zm-4.38 1.36-1.36.42-4.28 1.33a13.51 13.51 0 0 1 2.85-5.5 5.73 5.73 0 0 1 1.92-1.4c.74 1.52.87 3.7.87 5.15Zm-3.63-7c.62 0 1.14.13 1.59.42a7.1 7.1 0 0 0-2.07 1.62 15.47 15.47 0 0 0-3.5 7.33c-1.47.44-2.88.88-4.22 1.3l-.42.12c.97-4.28 4.54-10.66 8.62-10.79Zm2.3 22.2 1.69-6.35s-1.46-.75-4.38-.49c-7.42.49-10.79 5.67-10.47 10.8.22 3.4 2.24 4.83 4 6.08 1.39.98 2.61 1.86 2.71 3.48.07.9-.48 2.17-2.04 2.27-2.36.13-5.35-2.11-5.35-2.11l-1.13 4.83s2.95 3.14 8.33 2.82c4.47-.3 7.58-3.86 7.26-9.1-.25-4.03-3.08-5.84-5.32-7.28-1.46-.94-2.67-1.71-2.75-2.84-.03-.55 0-2.63 3.3-2.82a9.32 9.32 0 0 1 4.15.71Z" fill="#fff"></path></svg>