<svg xmlns="http://www.w3.org/2000/svg" width="24" height="24" viewBox="0 0 24 24">
  <path fill="#FFFFFF" d="M12 0C5.4 0 0 5.4 0 12s5.4 12 12 12 12-5.4 12-12S18.6 0 12 0zm5.3 17.4c-.2.3-.6.4-1 .2-2.7-1.7-6-2.1-10-1.2-.4.1-.8-.2-.9-.6-.1-.4.2-.8.6-.9 4.3-1 8-0.6 11 1.4.4.2.4.6.3 1zm1.4-3.2c-.2.3-.6.4-1.1.2-3-1.8-7.5-2.4-11-1.4-.4.1-.9-.1-1-.5-.1-.4.1-.9.5-1.1 4-1.2 8.9-.6 12.2 1.5.4.3.6.8.4 1.3zM18.1 11c-.1.2-.3.3-.6.2-3.5-2.2-8.9-2.7-12.2-1.5-.3.1-.5 0-.7-.2s-.2-.5 0-.7c3.6-1.4 9.5-.8 13.3 1.6.3.2.3.5.2.8z"/>
</svg>
