<svg xmlns="http://www.w3.org/2000/svg" width="24" height="24" viewBox="0 0 24 24">
  <path fill="#FFFFFF" d="M23.4 4.9c-.8.4-1.6.7-2.5.8.9-.5 1.6-1.4 1.9-2.4-.8.5-1.7.9-2.6 1.1-.8-.8-1.9-1.3-3.1-1.3-2.3 0-4.2 1.9-4.2 4.2 0 .3 0 .7.1 1C7.7 8.1 4.1 6.1 1.7 3.1c-.3.6-.4 1.4-.4 2.1 0 1.5.8 2.9 1.9 3.7-.7 0-1.3-.2-1.9-.5v.1c0 2.1 1.5 3.8 3.4 4.2-.4.1-.8.2-1.2.2-.3 0-.6 0-.9-.1.6 1.9 2.3 3.3 4.4 3.3-1.6 1.2-3.5 1.9-5.6 1.9-.4 0-.7 0-1.1-.1 2 1.3 4.3 2.1 6.8 2.1 8.2 0 12.8-6.8 12.8-12.8v-.6c.8-.5 1.6-1.4 2.2-2.3z"/>
</svg>
