<svg viewBox="0 0 145 186" fill="none" xmlns="http://www.w3.org/2000/svg"><rect x="0.339" width="144.585" height="185.569" rx="23.318" fill="#254F1A"></rect><path fill-rule="evenodd" clip-rule="evenodd" d="M72.715 33.25c-8.71 0-15.772 7.063-15.772 15.773 0 8.711 7.061 15.773 15.772 15.773s15.773-7.062 15.773-15.773c0-8.71-7.062-15.772-15.773-15.772ZM54.69 49.024c0-9.955 8.07-18.025 18.026-18.025s18.026 8.07 18.026 18.025c0 9.956-8.07 18.026-18.026 18.026-9.955 0-18.026-8.07-18.026-18.026ZM68.3 43.4a4.16 4.16 0 0 1 2.867-1.136h.423v-4.507h2.253v4.507H74.311a4.179 4.179 0 0 1 2.236.756l.92.65-1.299 1.841-.92-.65a1.925 1.925 0 0 0-1.01-.344h-3.072c-.502 0-.974.19-1.314.514a1.624 1.624 0 0 0-.516 1.176c0 .43.178.854.516 1.176.34.323.812.514 1.314.514h3.099c1.066 0 2.098.403 2.868 1.136a3.877 3.877 0 0 1 1.216 2.807 3.877 3.877 0 0 1-1.216 2.807 4.16 4.16 0 0 1-2.868 1.136h-.423v4.507h-2.253v-4.507H71.12a4.18 4.18 0 0 1-2.236-.756l-.92-.65 1.299-1.841.92.65c.289.203.64.325 1.01.344h3.072c.502 0 .974-.19 1.314-.514.338-.322.516-.746.516-1.176 0-.43-.178-.854-.516-1.176a1.908 1.908 0 0 0-1.314-.514h-3.099a4.16 4.16 0 0 1-2.868-1.136 3.877 3.877 0 0 1-1.216-2.807c0-1.064.445-2.073 1.216-2.807Z" fill="#D2E823"></path><path d="M33.518 114.528h2.268v-3.136c4.536-.196 7.364-2.324 7.364-5.628 0-2.856-1.988-4.9-5.516-5.852l-1.848-.504v-7.896c2.296.532 4.144 2.268 4.48 4.396h2.464c-.392-3.416-3.388-6.104-6.944-6.58v-3.136h-2.268V89.3c-4.172.308-6.748 2.492-6.748 5.908 0 2.744 1.96 4.592 5.88 5.544l.868.224v8.204c-2.716-.532-4.508-2.38-4.788-5.124h-2.576c.42 4.06 3.22 6.748 7.364 7.28v3.192Zm-4.396-19.404c0-2.156 1.708-3.528 4.396-3.752v7.42c-2.968-.868-4.396-2.072-4.396-3.668Zm6.664 14.196v-7.784l.616.14c3.052.756 4.452 1.988 4.452 3.836 0 2.24-1.96 3.668-5.068 3.808Zm9.4-2.94h9.604V111h2.296v-4.62h3.332v-2.212h-3.332v-6.3H54.79v6.3h-7.028l6.468-14.504h-2.576l-6.468 14.784v1.932Zm16.783 8.596h1.512l1.596-7.252h-3.108v7.252Zm12.094-3.556c4.424 0 7.532-3.136 7.532-7.616 0-4.508-2.828-7.672-6.86-7.672-2.128 0-4.004.924-5.124 2.352l1.148-6.608h9.688v-2.212H68.911l-1.82 11.704 2.212.392c1.064-2.324 2.688-3.5 4.872-3.5 3.108 0 5.096 2.268 5.096 5.544 0 3.22-2.128 5.516-5.208 5.516-2.856 0-4.844-1.988-4.844-4.788h-2.24c.112 4.06 3.024 6.888 7.084 6.888Zm18.369 0c4.564 0 7.448-2.828 7.448-7.392 0-4.508-2.828-7.336-7.336-7.336-2.772 0-5.236 1.512-6.132 3.696.42-5.852 2.66-9.072 6.328-9.072 2.492 0 4.172 1.344 4.564 3.64h2.408c-.644-3.528-3.248-5.712-6.972-5.712-5.264 0-8.288 3.976-8.288 11.144 0 7.084 2.884 11.032 7.98 11.032Zm-5.292-7.392c0-3.08 2.128-5.264 5.18-5.264 3.08 0 5.236 2.184 5.236 5.264 0 3.136-2.156 5.348-5.236 5.348-3.052 0-5.18-2.212-5.18-5.348Zm23.837 7.392c5.068 0 8.26-4.256 8.26-11.116 0-6.804-3.192-11.06-8.26-11.06-5.04 0-8.232 4.284-8.232 11.144 0 6.804 3.192 11.032 8.232 11.032Zm-5.936-11.032c0-5.516 2.296-8.96 5.936-8.96 3.668 0 5.992 3.416 5.992 8.876 0 5.488-2.324 8.904-5.992 8.904-3.64 0-5.936-3.388-5.936-8.82ZM51.472 150h1.633l-2.502-3.915c1.18-.466 1.905-1.49 1.905-2.851 0-1.867-1.36-3.111-3.396-3.111h-3.771V150h1.373v-3.655H49.333l2.14 3.655Zm-4.758-4.939v-3.668h2.398c1.232 0 2.048.739 2.048 1.841 0 1.102-.816 1.827-2.047 1.827h-2.398Zm10.587 5.133c1.685 0 3.085-1.114 3.305-2.527h-1.348c-.233.791-1.024 1.322-1.957 1.322-1.335 0-2.19-.856-2.294-2.242h5.677v-.247c0-2.579-1.672-3.798-3.5-3.798-2.1 0-3.46 1.634-3.46 3.746 0 2.269 1.425 3.746 3.577 3.746Zm-2.217-4.549c.26-1.05 1.037-1.75 2.1-1.75 1.115 0 1.906.687 2.074 1.75h-4.174ZM64.099 150h1.724l2.722-7.103h-1.36l-2.23 6.04-2.217-6.04H61.39L64.1 150Zm8.633.194c1.685 0 3.085-1.114 3.305-2.527h-1.348c-.233.791-1.024 1.322-1.957 1.322-1.335 0-2.19-.856-2.294-2.242h5.677v-.247c0-2.579-1.672-3.798-3.5-3.798-2.1 0-3.46 1.634-3.46 3.746 0 2.269 1.425 3.746 3.577 3.746Zm-2.217-4.549c.26-1.05 1.037-1.75 2.1-1.75 1.115 0 1.906.687 2.074 1.75h-4.174Zm12.459.453V150h1.322v-4.031c0-2.009-1.14-3.267-2.93-3.267-.985 0-1.788.389-2.307 1.037v-.842h-1.322V150h1.322v-3.785c0-1.465.752-2.32 2.01-2.32 1.179 0 1.905.842 1.905 2.203Zm4.356.7v-3.901h-1.322v4.031c0 2.009 1.14 3.266 2.93 3.266.984 0 1.788-.388 2.307-1.037V150h1.322v-7.103h-1.322v3.785c0 1.464-.752 2.32-2.01 2.32-1.18 0-1.905-.843-1.905-2.204Zm10.433 3.396c1.685 0 3.085-1.114 3.305-2.527h-1.348c-.233.791-1.024 1.322-1.957 1.322-1.335 0-2.19-.856-2.295-2.242h5.678v-.247c0-2.579-1.672-3.798-3.5-3.798-2.1 0-3.46 1.634-3.46 3.746 0 2.269 1.425 3.746 3.577 3.746Zm-2.217-4.549c.26-1.05 1.037-1.75 2.1-1.75 1.115 0 1.905.687 2.074 1.75h-4.174Z" fill="#D2E823"></path></svg>