<svg fill="none" xmlns="http://www.w3.org/2000/svg" viewBox="0 0 245 302"><rect x="0.38" width="243.75" height="301.93" rx="46.5" fill="#2267C1"></rect><g clip-path="url(#a)"><path d="M83.82 59.72A23.96 23.96 0 0 0 59.94 35.7a23.96 23.96 0 0 0-23.9 24.03A24 24 0 0 0 56.2 83.46v-16.8h-6.06v-6.94h6.06v-5.3c0-6.02 3.57-9.34 9.03-9.34 2.61 0 5.34.47 5.34.47v5.91h-3.01c-2.97 0-3.9 1.85-3.9 3.76v4.5h6.63l-1.06 6.95h-5.56v16.8a24 24 0 0 0 20.15-23.75Z" fill="#fff"></path></g><g opacity="0.3" fill="#fff"><path d="M29.97 139.45v.12c0 5 3.66 8.66 8.66 8.66h32.78c5 0 8.66-3.67 8.66-8.66v-.12c0-5-3.66-8.66-8.66-8.66H38.63a8.4 8.4 0 0 0-8.66 8.66Z"></path><path d="M62.6 139.45v.12c0 5 3.67 8.66 8.67 8.66h32.78c5 0 8.66-3.67 8.66-8.66v-.12c0-5-3.66-8.66-8.66-8.66H71.27a8.4 8.4 0 0 0-8.66 8.66Z"></path><path d="M95.25 139.45v.12c0 5 3.66 8.66 8.66 8.66h32.78c5 0 8.66-3.67 8.66-8.66v-.12c0-5-3.66-8.66-8.66-8.66H103.9a8.4 8.4 0 0 0-8.66 8.66Z"></path><path d="M127.88 139.45v.12c0 5 3.66 8.66 8.66 8.66h32.78c5 0 8.67-3.67 8.67-8.66v-.12c0-5-3.67-8.66-8.67-8.66h-32.78a8.4 8.4 0 0 0-8.66 8.66Z"></path><path d="M160.52 139.45v.12c0 5 3.66 8.66 8.66 8.66h32.78c5 0 8.66-3.67 8.66-8.66v-.12c0-5-3.66-8.66-8.66-8.66h-32.78a8.4 8.4 0 0 0-8.66 8.66ZM29.97 167.57v.12c0 5 3.66 8.66 8.66 8.66h32.78c5 0 8.66-3.66 8.66-8.66v-.12c0-5-3.66-8.66-8.66-8.66H38.63a8.4 8.4 0 0 0-8.66 8.66Z"></path><path d="M62.6 167.57v.12c0 5 3.67 8.66 8.67 8.66h32.78c5 0 8.66-3.66 8.66-8.66v-.12c0-5-3.66-8.66-8.66-8.66H71.27a8.4 8.4 0 0 0-8.66 8.66Z"></path><path d="M95.25 167.57v.12c0 5 3.66 8.66 8.66 8.66h32.78c5 0 8.66-3.66 8.66-8.66v-.12c0-5-3.66-8.66-8.66-8.66H103.9a8.4 8.4 0 0 0-8.66 8.66Z"></path><path d="M127.88 167.57v.12c0 5 3.66 8.66 8.66 8.66h32.78c5 0 8.67-3.66 8.67-8.66v-.12c0-5-3.67-8.66-8.67-8.66h-32.78a8.4 8.4 0 0 0-8.66 8.66Z"></path><path d="M160.52 167.57v.12c0 5 3.66 8.66 8.66 8.66h32.78c5 0 8.66-3.66 8.66-8.66v-.12c0-5-3.66-8.66-8.66-8.66h-32.78a8.4 8.4 0 0 0-8.66 8.66ZM29.97 195.7v.12c0 5 3.66 8.66 8.66 8.66h32.78c5 0 8.66-3.67 8.66-8.66v-.12c0-5-3.66-8.66-8.66-8.66H38.63a8.4 8.4 0 0 0-8.66 8.66Z"></path><path d="M62.6 195.7v.12c0 5 3.67 8.66 8.67 8.66h32.78c5 0 8.66-3.67 8.66-8.66v-.12c0-5-3.66-8.66-8.66-8.66H71.27a8.4 8.4 0 0 0-8.66 8.66Z"></path></g><defs><clipPath id="a"><path fill="#fff" transform="translate(26.86 35.69)" d="M0 0h66.15v47.78H0z"></path></clipPath></defs></svg>