<svg fill="none" xmlns="http://www.w3.org/2000/svg" viewBox="0 0 245 302"><rect x="0.75" width="243.75" height="301.93" rx="46.5" fill="#FF2272"></rect><g clip-path="url(#a)" fill="#fff"><path d="M72.35 43.41a11.18 11.18 0 0 1-2.76-7.38h-2.17c.56 3.09 2.4 5.73 4.93 7.38ZM52.33 59.35a6.8 6.8 0 0 0-3.14 12.83 6.8 6.8 0 0 1 7.51-10.45v-8.27a15.1 15.1 0 0 0-2-.14h-.36v6.35a6.84 6.84 0 0 0-2-.32Z"></path><path d="M78.47 47.04v6.29c-4.2 0-8.08-1.35-11.25-3.62v16.45a14.9 14.9 0 0 1-14.89 14.9c-3.17 0-6.12-1-8.53-2.7a14.86 14.86 0 0 0 25.78-10.14V51.76a19.24 19.24 0 0 0 11.25 3.62V47.3c-.82 0-1.6-.08-2.36-.25Z"></path><path d="M67.21 66.16V49.71a19.24 19.24 0 0 0 11.25 3.62v-6.29a11.24 11.24 0 0 1-6.13-3.63 11.3 11.3 0 0 1-4.93-7.38h-5.92l-.01 32.44a6.8 6.8 0 0 1-12.3 3.72 6.8 6.8 0 0 1 5.16-12.5v-6.35a14.88 14.88 0 0 0-10.54 25.02c2.42 1.7 5.37 2.7 8.53 2.7 8.2 0 14.9-6.69 14.9-14.9Z"></path></g><g opacity="0.3" fill="#fff"><path d="M30.35 139.45v.12c0 5 3.66 8.66 8.66 8.66h32.78c5 0 8.66-3.67 8.66-8.66v-.12c0-5-3.66-8.66-8.66-8.66H39a8.4 8.4 0 0 0-8.66 8.66Z"></path><path d="M62.98 139.45v.12c0 5 3.67 8.66 8.66 8.66h32.79c5 0 8.66-3.67 8.66-8.66v-.12c0-5-3.67-8.66-8.66-8.66H71.64a8.4 8.4 0 0 0-8.66 8.66Z"></path><path d="M95.62 139.45v.12c0 5 3.66 8.66 8.66 8.66h32.78c5 0 8.66-3.67 8.66-8.66v-.12c0-5-3.66-8.66-8.66-8.66h-32.78a8.4 8.4 0 0 0-8.66 8.66Z"></path><path d="M128.26 139.45v.12c0 5 3.66 8.66 8.66 8.66h32.78c5 0 8.66-3.67 8.66-8.66v-.12c0-5-3.66-8.66-8.66-8.66h-32.78a8.4 8.4 0 0 0-8.66 8.66Z"></path><path d="M160.9 139.45v.12c0 5 3.66 8.66 8.66 8.66h32.78c5 0 8.66-3.67 8.66-8.66v-.12c0-5-3.66-8.66-8.66-8.66h-32.78a8.4 8.4 0 0 0-8.66 8.66ZM30.35 167.57v.12c0 5 3.66 8.66 8.66 8.66h32.78c5 0 8.66-3.66 8.66-8.66v-.12c0-5-3.66-8.66-8.66-8.66H39a8.4 8.4 0 0 0-8.66 8.66Z"></path><path d="M62.98 167.57v.12c0 5 3.67 8.66 8.66 8.66h32.79c5 0 8.66-3.66 8.66-8.66v-.12c0-5-3.67-8.66-8.66-8.66H71.64a8.4 8.4 0 0 0-8.66 8.66Z"></path><path d="M95.62 167.57v.12c0 5 3.66 8.66 8.66 8.66h32.78c5 0 8.66-3.66 8.66-8.66v-.12c0-5-3.66-8.66-8.66-8.66h-32.78a8.4 8.4 0 0 0-8.66 8.66Z"></path><path d="M128.26 167.57v.12c0 5 3.66 8.66 8.66 8.66h32.78c5 0 8.66-3.66 8.66-8.66v-.12c0-5-3.66-8.66-8.66-8.66h-32.78a8.4 8.4 0 0 0-8.66 8.66Z"></path><path d="M160.9 167.57v.12c0 5 3.66 8.66 8.66 8.66h32.78c5 0 8.66-3.66 8.66-8.66v-.12c0-5-3.66-8.66-8.66-8.66h-32.78a8.4 8.4 0 0 0-8.66 8.66ZM30.35 195.7v.12c0 5 3.66 8.66 8.66 8.66h32.78c5 0 8.66-3.67 8.66-8.66v-.12c0-5-3.66-8.66-8.66-8.66H39a8.4 8.4 0 0 0-8.66 8.66Z"></path><path d="M62.98 195.7v.12c0 5 3.67 8.66 8.66 8.66h32.79c5 0 8.66-3.67 8.66-8.66v-.12c0-5-3.67-8.66-8.66-8.66H71.64a8.4 8.4 0 0 0-8.66 8.66Z"></path></g><defs><clipPath id="a"><path fill="#fff" transform="translate(27.24 35.69)" d="M0 0h66.15v47.78H0z"></path></clipPath></defs></svg>