<svg fill="none" xmlns="http://www.w3.org/2000/svg" viewBox="0 0 244 302"><rect width="243.75" height="301.93" rx="46.5" fill="#1DA1F2"></rect><path d="M83.45 44.89c-1.76.77-3.65 1.3-5.63 1.53a9.76 9.76 0 0 0 4.31-5.38c-1.9 1.12-4 1.92-6.22 2.36a9.84 9.84 0 0 0-16.96 6.65c0 .76.09 1.5.25 2.21A27.92 27.92 0 0 1 39 42.11a9.64 9.64 0 0 0 3.03 12.97 9.85 9.85 0 0 1-4.44-1.21v.12c0 4.7 3.38 8.63 7.87 9.53a9.95 9.95 0 0 1-4.43.16 9.8 9.8 0 0 0 9.16 6.75 19.78 19.78 0 0 1-14.52 4.02 27.9 27.9 0 0 0 15.03 4.37c18.03 0 27.89-14.8 27.89-27.64l-.03-1.26a19.83 19.83 0 0 0 4.88-5.02v-.01Z" fill="#fff"></path><g opacity="0.3" fill="#fff"><path d="M29.6 139.45v.12c0 5 3.66 8.66 8.66 8.66h32.78c5 0 8.66-3.67 8.66-8.66v-.12c0-5-3.66-8.66-8.66-8.66H38.26a8.4 8.4 0 0 0-8.67 8.66Z"></path><path d="M62.23 139.45v.12c0 5 3.66 8.66 8.66 8.66h32.78c5 0 8.66-3.67 8.66-8.66v-.12c0-5-3.66-8.66-8.66-8.66H70.9a8.4 8.4 0 0 0-8.66 8.66Z"></path><path d="M94.87 139.45v.12c0 5 3.66 8.66 8.66 8.66h32.78c5 0 8.66-3.67 8.66-8.66v-.12c0-5-3.66-8.66-8.66-8.66h-32.78a8.4 8.4 0 0 0-8.66 8.66Z"></path><path d="M127.5 139.45v.12c0 5 3.67 8.66 8.67 8.66h32.78c5 0 8.66-3.67 8.66-8.66v-.12c0-5-3.66-8.66-8.66-8.66h-32.78a8.4 8.4 0 0 0-8.66 8.66Z"></path><path d="M160.15 139.45v.12c0 5 3.66 8.66 8.66 8.66h32.78c5 0 8.66-3.67 8.66-8.66v-.12c0-5-3.66-8.66-8.66-8.66H168.8a8.4 8.4 0 0 0-8.66 8.66ZM29.6 167.57v.12c0 5 3.66 8.66 8.66 8.66h32.78c5 0 8.66-3.66 8.66-8.66v-.12c0-5-3.66-8.66-8.66-8.66H38.26a8.4 8.4 0 0 0-8.67 8.66Z"></path><path d="M62.23 167.57v.12c0 5 3.66 8.66 8.66 8.66h32.78c5 0 8.66-3.66 8.66-8.66v-.12c0-5-3.66-8.66-8.66-8.66H70.9a8.4 8.4 0 0 0-8.66 8.66Z"></path><path d="M94.87 167.57v.12c0 5 3.66 8.66 8.66 8.66h32.78c5 0 8.66-3.66 8.66-8.66v-.12c0-5-3.66-8.66-8.66-8.66h-32.78a8.4 8.4 0 0 0-8.66 8.66Z"></path><path d="M127.5 167.57v.12c0 5 3.67 8.66 8.67 8.66h32.78c5 0 8.66-3.66 8.66-8.66v-.12c0-5-3.66-8.66-8.66-8.66h-32.78a8.4 8.4 0 0 0-8.66 8.66Z"></path><path d="M160.15 167.57v.12c0 5 3.66 8.66 8.66 8.66h32.78c5 0 8.66-3.66 8.66-8.66v-.12c0-5-3.66-8.66-8.66-8.66H168.8a8.4 8.4 0 0 0-8.66 8.66ZM29.6 195.7v.12c0 5 3.66 8.66 8.66 8.66h32.78c5 0 8.66-3.67 8.66-8.66v-.12c0-5-3.66-8.66-8.66-8.66H38.26a8.4 8.4 0 0 0-8.67 8.66Z"></path><path d="M62.23 195.7v.12c0 5 3.66 8.66 8.66 8.66h32.78c5 0 8.66-3.67 8.66-8.66v-.12c0-5-3.66-8.66-8.66-8.66H70.9a8.4 8.4 0 0 0-8.66 8.66Z"></path></g></svg>