<svg fill="none" xmlns="http://www.w3.org/2000/svg" viewBox="0 0 245 302"><rect x="0.75" width="243.75" height="301.93" rx="46.5" fill="#353535"></rect><path d="M64.04 59.58c0 9.13-7.35 16.53-16.42 16.53-9.07 0-16.43-7.4-16.43-16.53s7.36-16.54 16.42-16.54c9.07 0 16.43 7.4 16.43 16.54Zm18.02 0c0 8.6-3.67 15.57-8.21 15.57-4.54 0-8.22-6.97-8.22-15.57 0-8.6 3.68-15.57 8.22-15.57 4.54 0 8.2 6.97 8.21 15.57Zm7.37 0c0 7.7-1.3 13.94-2.9 13.94-1.59 0-2.88-6.24-2.88-13.94 0-7.7 1.3-13.95 2.89-13.95 1.6 0 2.89 6.24 2.89 13.95Z" fill="#fff"></path><g opacity="0.3" fill="#fff"><path d="M30.34 139.45v.12c0 5 3.67 8.66 8.67 8.66h32.78c5 0 8.66-3.67 8.66-8.66v-.12c0-5-3.66-8.66-8.66-8.66H39a8.4 8.4 0 0 0-8.66 8.66Z"></path><path d="M62.98 139.45v.12c0 5 3.66 8.66 8.66 8.66h32.78c5 0 8.66-3.67 8.66-8.66v-.12c0-5-3.66-8.66-8.66-8.66H71.64a8.4 8.4 0 0 0-8.66 8.66Z"></path><path d="M95.62 139.45v.12c0 5 3.66 8.66 8.66 8.66h32.78c5 0 8.66-3.67 8.66-8.66v-.12c0-5-3.66-8.66-8.66-8.66h-32.78a8.4 8.4 0 0 0-8.66 8.66Z"></path><path d="M128.26 139.45v.12c0 5 3.66 8.66 8.66 8.66h32.78c5 0 8.66-3.67 8.66-8.66v-.12c0-5-3.66-8.66-8.66-8.66h-32.78a8.4 8.4 0 0 0-8.66 8.66Z"></path><path d="M160.9 139.45v.12c0 5 3.66 8.66 8.66 8.66h32.78c5 0 8.66-3.67 8.66-8.66v-.12c0-5-3.66-8.66-8.66-8.66h-32.78a8.4 8.4 0 0 0-8.66 8.66ZM30.34 167.57v.12c0 5 3.67 8.66 8.67 8.66h32.78c5 0 8.66-3.66 8.66-8.66v-.12c0-5-3.66-8.66-8.66-8.66H39a8.4 8.4 0 0 0-8.66 8.66Z"></path><path d="M62.98 167.57v.12c0 5 3.66 8.66 8.66 8.66h32.78c5 0 8.66-3.66 8.66-8.66v-.12c0-5-3.66-8.66-8.66-8.66H71.64a8.4 8.4 0 0 0-8.66 8.66Z"></path><path d="M95.62 167.57v.12c0 5 3.66 8.66 8.66 8.66h32.78c5 0 8.66-3.66 8.66-8.66v-.12c0-5-3.66-8.66-8.66-8.66h-32.78a8.4 8.4 0 0 0-8.66 8.66Z"></path><path d="M128.26 167.57v.12c0 5 3.66 8.66 8.66 8.66h32.78c5 0 8.66-3.66 8.66-8.66v-.12c0-5-3.66-8.66-8.66-8.66h-32.78a8.4 8.4 0 0 0-8.66 8.66Z"></path><path d="M160.9 167.57v.12c0 5 3.66 8.66 8.66 8.66h32.78c5 0 8.66-3.66 8.66-8.66v-.12c0-5-3.66-8.66-8.66-8.66h-32.78a8.4 8.4 0 0 0-8.66 8.66ZM30.34 195.7v.12c0 5 3.67 8.66 8.67 8.66h32.78c5 0 8.66-3.67 8.66-8.66v-.12c0-5-3.66-8.66-8.66-8.66H39a8.4 8.4 0 0 0-8.66 8.66Z"></path><path d="M62.98 195.7v.12c0 5 3.66 8.66 8.66 8.66h32.78c5 0 8.66-3.67 8.66-8.66v-.12c0-5-3.66-8.66-8.66-8.66H71.64a8.4 8.4 0 0 0-8.66 8.66Z"></path></g></svg>